<svg xmlns="http://www.w3.org/2000/svg" width="103" height="104" viewBox="0 0 103 104" fill="none">
  <path d="M82.61 48.192C82.6031 48.192 82.6031 48.192 82.61 48.192L55.9872 21.3152C54.8542 20.171 53.3504 19.54 51.7435 19.54C50.1367 19.54 48.6328 20.171 47.4929 21.3152L20.8976 48.1782C20.8908 48.1851 20.877 48.199 20.8702 48.2059C18.5423 50.5705 18.5423 54.412 20.8839 56.7696C21.9483 57.8513 23.3628 58.4754 24.8667 58.5378C24.9285 58.5448 24.9903 58.5448 25.0521 58.5448H26.1096V78.321C26.1096 82.2319 29.2615 85.4216 33.1412 85.4216H43.5514C44.6089 85.4216 45.4603 84.5548 45.4603 83.4939V67.9822C45.4603 66.1932 46.9024 64.7439 48.6672 64.7439H54.8061C56.5778 64.7439 58.013 66.1932 58.013 67.9822V83.487C58.013 84.5548 58.8713 85.4147 59.9219 85.4147H70.3321C74.2119 85.4147 77.3637 82.2319 77.3637 78.3141V58.5448H78.3457C79.9525 58.5448 81.4564 57.9137 82.5963 56.7696C84.9447 54.4051 84.9447 50.5566 82.61 48.192ZM79.9045 54.0375C79.4925 54.4536 78.9431 54.6824 78.3594 54.6824H75.4616C74.4041 54.6824 73.5526 55.5492 73.5526 56.6101V78.3141C73.5526 80.0962 72.1175 81.5523 70.3458 81.5523H61.8447V67.9822C61.8447 64.0713 58.6928 60.8816 54.813 60.8816H48.674C44.7943 60.8816 41.6424 64.0644 41.6424 67.9822V81.5593H33.1412C31.3764 81.5593 29.9344 80.11 29.9344 78.321V56.6171C29.9344 55.5492 29.076 54.6894 28.0254 54.6894H25.1757C25.1482 54.6894 25.1139 54.6824 25.0864 54.6824C24.5165 54.6755 23.9808 54.4467 23.5826 54.0375C22.7311 53.1777 22.7311 51.777 23.5826 50.9172L50.1985 24.0473C50.6105 23.6312 51.1598 23.4024 51.7435 23.4024C52.3272 23.4024 52.8765 23.6312 53.2886 24.0473L79.8976 50.9172C79.9045 50.9241 79.9045 50.9241 79.9113 50.931C80.7491 51.7839 80.7491 53.1846 79.9045 54.0375Z" fill="#B3C41D"/>
</svg>