<svg xmlns="http://www.w3.org/2000/svg" width="56" height="67" viewBox="0 0 56 67" fill="none">
  <path d="M28.0036 66.3552C27.7171 66.3552 27.4447 66.2988 27.1792 66.1929C10.9909 59.5187 0.538818 43.8068 0.538818 26.1617V13.2788C0.538818 12.3828 1.06981 11.5856 1.88725 11.2399L27.1652 0.642958C27.4307 0.530075 27.7102 0.473633 27.9966 0.473633C28.2831 0.473633 28.5695 0.530075 28.835 0.642958L54.113 11.2399C54.9304 11.5856 55.4614 12.3828 55.4614 13.2788V26.1617C55.4614 43.8068 45.0093 59.5258 28.828 66.1929C28.5625 66.2988 28.2831 66.3552 28.0036 66.3552ZM4.90552 14.7463V26.1546C4.90552 41.535 13.9114 55.4831 27.8429 61.6847L28.0036 61.7552L28.1643 61.6847C42.0958 55.4831 51.1017 41.542 51.1017 26.1546V14.7463L28.0036 5.06658L4.90552 14.7463ZM25.146 40.8295C24.5661 40.8295 24.0142 40.5966 23.602 40.1804L16.3987 32.9064C15.9864 32.4902 15.7559 31.9328 15.7559 31.3472C15.7559 30.7617 15.9864 30.2043 16.3987 29.788C16.8109 29.3718 17.3628 29.139 17.9427 29.139C18.5226 29.139 19.0746 29.3718 19.4868 29.788L25.153 35.5098L36.5204 24.031C36.9326 23.6147 37.4846 23.3819 38.0645 23.3819C38.6444 23.3819 39.1963 23.6147 39.6085 24.031C40.0208 24.4472 40.2513 25.0046 40.2513 25.5902C40.2513 26.1758 40.0208 26.7331 39.6085 27.1494L26.6901 40.1804C26.2779 40.5966 25.7329 40.8295 25.146 40.8295Z" fill="#B3C41D"/>
</svg>