<svg xmlns="http://www.w3.org/2000/svg" width="69" height="70" viewBox="0 0 69 70" fill="none">
  <path d="M33.2354 61.1427C31.819 60.0012 30.5661 58.6741 29.5038 57.1888C28.9113 56.3637 27.7673 56.178 26.9502 56.7694C26.133 57.3676 25.9492 58.5228 26.5348 59.348C27.7878 61.1014 29.2722 62.683 30.9474 64.0307C31.2674 64.292 31.676 64.4364 32.0846 64.4364C32.643 64.4364 33.1673 64.182 33.5146 63.7419C34.1547 62.9443 34.0253 61.7753 33.2354 61.1427Z" fill="#B3C41D"/>
  <path d="M55.4414 28.2331C57.0076 29.1476 58.4444 30.2753 59.711 31.5887C60.0583 31.9463 60.5213 32.1457 61.0184 32.1457C61.5019 32.1457 61.9513 31.96 62.2918 31.6231C63.0136 30.9148 63.0272 29.739 62.3258 29.0101C60.8277 27.4561 59.1253 26.1221 57.2731 25.0425C56.4015 24.5336 55.278 24.8362 54.7741 25.7164C54.5289 26.1427 54.4608 26.6378 54.5902 27.1191C54.7128 27.5936 55.0124 27.9855 55.4414 28.2331Z" fill="#B3C41D"/>
  <path d="M62.925 35.983C63.7898 37.592 64.4368 39.3042 64.8385 41.0852C65.0292 41.931 65.7646 42.5223 66.6226 42.5223C66.7588 42.5223 66.895 42.5086 67.0312 42.4742C68.0118 42.2473 68.6314 41.2571 68.4067 40.2669C67.93 38.1559 67.1674 36.1205 66.1391 34.2157C65.9076 33.7825 65.5195 33.4662 65.0496 33.3287C64.5798 33.1912 64.0895 33.2462 63.6605 33.48C63.2315 33.7138 62.9182 34.1057 62.782 34.5802C62.6458 35.0547 62.6867 35.5498 62.925 35.983Z" fill="#B3C41D"/>
  <path d="M43.1025 65.3448C41.3047 65.1179 39.5479 64.6434 37.8796 63.9352C36.9535 63.5364 35.8775 63.9833 35.4826 64.9185C35.0876 65.8537 35.5303 66.9401 36.4564 67.339C38.4311 68.1779 40.5148 68.7417 42.6462 69.0099C42.7211 69.0168 42.796 69.0237 42.8709 69.0237C43.7902 69.0237 44.5733 68.3291 44.6823 67.4077C44.7436 66.9195 44.6074 66.4313 44.3077 66.0462C44.0081 65.6611 43.5859 65.4067 43.1025 65.3448Z" fill="#B3C41D"/>
  <path d="M26.9776 52.3621C26.3919 50.7393 26.0174 49.034 25.8676 47.3011C37.0761 46.3866 46.0442 37.5299 47.2495 26.2941L47.2563 26.3009L47.2768 26.0878C47.2904 25.9434 47.304 25.799 47.3176 25.6477C48.3731 25.744 49.4218 25.9227 50.4432 26.184C50.9199 26.3078 51.4102 26.2322 51.8255 25.9777C52.2477 25.7233 52.5405 25.3245 52.6631 24.8432C52.7857 24.3687 52.7108 23.8667 52.4656 23.4473C52.2137 23.0209 51.8187 22.7253 51.3421 22.6015C50.0346 22.2645 48.6932 22.0445 47.3312 21.9482C46.412 9.63967 36.2385 0.0678711 23.9609 0.0678711C11.0432 0.0678711 0.536133 10.678 0.536133 23.7223C0.536133 36.134 10.0082 46.3935 22.1973 47.308C22.3539 49.4672 22.8101 51.5919 23.5387 53.6204C23.8043 54.3493 24.4921 54.8376 25.2547 54.8376C25.4658 54.8376 25.6769 54.8032 25.8812 54.7275C26.8346 54.3768 27.318 53.3179 26.9776 52.3621ZM22.2109 43.6086C12.0647 42.7078 4.19285 34.0711 4.19285 23.7223C4.19285 12.7134 13.0589 3.76044 23.9609 3.76044C34.2093 3.76044 42.7621 11.7094 43.6541 21.9551C32.2277 22.8903 23.137 32.0701 22.2109 43.6086ZM25.8812 43.5948C26.7869 34.1399 34.2774 26.5829 43.6405 25.6614C42.728 35.1163 35.2443 42.6734 25.8812 43.5948Z" fill="#B3C41D"/>
  <path d="M68.4816 45.3755C68.1547 45.0111 67.7053 44.7979 67.215 44.7704C66.7179 44.7429 66.2617 44.9148 65.9008 45.2449C65.5399 45.575 65.3288 46.0288 65.3015 46.5239C65.213 48.353 64.8794 50.1614 64.3005 51.8874C63.9805 52.8501 64.498 53.9021 65.4514 54.2253C65.642 54.2872 65.8395 54.3216 66.0302 54.3216C66.8133 54.3216 67.5147 53.8128 67.7598 53.0632C68.4407 51.0141 68.8357 48.8756 68.9447 46.7027C68.9787 46.2145 68.8153 45.74 68.4816 45.3755Z" fill="#B3C41D"/>
  <path d="M64.4367 56.2885C63.606 55.7178 62.4688 55.9309 61.8968 56.7698C60.8753 58.2757 59.6564 59.6441 58.2673 60.82C57.8927 61.1363 57.6612 61.5832 57.6204 62.0714C57.5795 62.5597 57.7293 63.041 58.0426 63.4192C58.3898 63.8387 58.9006 64.0793 59.4453 64.0793C59.8743 64.0793 60.2897 63.928 60.6234 63.6461C62.2645 62.2502 63.7081 60.6412 64.9202 58.8533C65.4854 58.0144 65.2743 56.8661 64.4367 56.2885Z" fill="#B3C41D"/>
  <path d="M53.6911 63.7354C52.0432 64.4849 50.3 65.0075 48.5091 65.2756C48.0256 65.3513 47.6034 65.6057 47.3106 66.0045C47.0178 66.4034 46.902 66.8847 46.9701 67.3729C47.1063 68.2668 47.8826 68.9476 48.7747 68.9476C48.8632 68.9476 48.9517 68.9407 49.047 68.927C51.1716 68.6038 53.2417 67.9918 55.196 67.0979C55.6387 66.8916 55.9791 66.5271 56.1562 66.0664C56.3264 65.6057 56.3128 65.1037 56.1085 64.6568C55.7 63.7285 54.6172 63.3159 53.6911 63.7354Z" fill="#B3C41D"/>
  <path d="M14.4208 9.49525C13.9373 9.44024 13.4606 9.57776 13.0793 9.8872C8.87102 13.2566 6.46045 18.3038 6.46045 23.7223C6.46045 24.74 7.27759 25.5651 8.2854 25.5651C9.29321 25.5651 10.1104 24.74 10.1104 23.7223C10.1104 19.4384 12.017 15.4432 15.3469 12.7752C15.7282 12.4658 15.9734 12.0326 16.0278 11.5375C16.0823 11.0493 15.9461 10.5679 15.6397 10.176C15.3333 9.78405 14.9111 9.55026 14.4208 9.49525Z" fill="#B3C41D"/>
  <path d="M23.9608 6.05029C22.3129 6.05029 20.6786 6.28409 19.1056 6.73792C18.1386 7.01985 17.5734 8.04442 17.8526 9.02085C18.0773 9.80475 18.7992 10.3549 19.6095 10.3549C19.7797 10.3549 19.95 10.3273 20.1202 10.2792C21.3595 9.91477 22.6534 9.73599 23.9608 9.73599C24.9686 9.73599 25.7857 8.91083 25.7857 7.89314C25.7857 6.87545 24.9686 6.05029 23.9608 6.05029Z" fill="#B3C41D"/>
</svg>